<svg width="88" height="88" viewBox="0 0 88 88" fill="none" xmlns="http://www.w3.org/2000/svg">
<g clip-path="url(#clip0_96_138)">
<path d="M6.85347 0H81.1473C81.6363 0.115823 82.277 0.246185 82.7329 0.398359C84.4611 0.979228 85.9272 2.15462 86.8699 3.71523C87.2227 4.29149 87.4406 4.74869 87.6373 5.38901C87.7052 5.60991 87.9437 6.84411 88 6.92944V81.1014C87.8187 81.6166 87.7761 82.2589 87.5823 82.7943C86.524 85.7209 84.1693 87.4831 81.1456 88H6.77209C6.73587 87.954 5.67493 87.7271 5.50907 87.6786C2.98686 86.9404 0.946902 84.8659 0.276872 82.323C0.180187 81.956 0.0934248 81.5689 0 81.1946V6.72104C0.158573 6.30274 0.208763 5.86511 0.339959 5.44547C1.07768 3.08584 2.85581 1.1995 5.2094 0.408746C5.73646 0.231665 6.31954 0.127136 6.85347 0Z" fill="#171143"/>
<path d="M57.7944 20.0039C58.8372 19.9628 60.088 19.9936 61.1485 19.9939L67.8998 19.9916L67.9002 45.491C67.8998 49.6096 67.8581 53.8067 67.9109 57.9206C67.9346 59.7725 67.9681 61.6241 68.0111 63.4756C68.0514 64.7384 68.1301 65.9764 68.161 67.2465L59.1775 67.2474C59.086 65.74 58.8862 63.8292 58.7156 62.3236C58.3925 62.7511 58.1111 63.2225 57.7849 63.6505C55.0706 67.2139 50.5112 68.4642 46.225 67.8055C43.1807 67.2994 40.454 65.6885 38.4767 63.3351C35.0995 59.3162 34.1731 53.9885 34.6139 48.8855C34.9951 44.4735 36.7265 40.119 40.1718 37.2231C43.008 34.8318 46.6878 33.6831 50.381 34.0358C52.5844 34.2335 54.775 34.8306 56.4812 36.3201C56.9651 36.7424 57.378 37.2611 57.7901 37.7541L57.7944 20.0039Z" fill="#FF8500"/>
<path d="M51.0689 41.7389C51.1492 41.725 51.4092 41.7145 51.4977 41.7131C53.1009 41.6887 54.6237 42.1978 55.777 43.3387C57.4833 45.0265 57.7587 46.7289 57.7875 49.0123C57.7978 49.8433 57.7819 50.707 57.7922 51.5242C57.8227 53.9365 57.6547 56.3771 55.8548 58.1955C54.683 59.3793 53.3144 59.8877 51.6593 59.9126C47.4363 59.8344 45.2948 56.6216 44.8565 52.7089C44.3503 48.1873 45.7107 42.342 51.0689 41.7389Z" fill="#171143"/>
<path d="M19.8431 22.3844C23.1907 22.4244 26.6489 22.3856 30.0037 22.3856L30.0011 67.2508C26.7008 67.1859 23.1567 67.2508 19.8403 67.247L19.8381 39.1152C19.8382 33.5905 19.769 27.8992 19.8431 22.3844Z" fill="#FF8500"/>
</g>
<defs>
<clipPath id="clip0_96_138">
<rect width="88" height="88" fill="white"/>
</clipPath>
</defs>
</svg>
