<svg width="1904" height="267" viewBox="0 0 1904 267" fill="none" xmlns="http://www.w3.org/2000/svg">
<path d="M663.813 138.967C663.813 138.967 -7.46384 142.488 0.0628223 142.047L1327.56 135.887L1675.33 131.268C1686.14 130.548 1697.56 130.014 1708.31 129.056C1723.02 127.745 1738.25 124.801 1753.01 123.452C1745.84 113.313 1737.38 103.537 1729.85 93.6274C1726.77 89.5716 1723.04 85.9858 1720.05 81.7652C1723.81 83.6856 1728.91 88.4472 1732.7 91.0387C1742.97 98.0716 1753.24 105.195 1763.61 112.088C1763.65 107.984 1764.18 102.581 1764.48 98.3542L1766.25 73.162L1771.5 2.06707e-05C1771.85 2.04581 1772.05 4.16804 1772.24 6.23655C1773.63 21.0243 1775.59 35.7728 1777.45 50.5171L1782.61 89.4271C1783.57 96.5161 1784.78 104.348 1785.4 111.419C1794.14 105.362 1803.82 96.8813 1812.39 90.3262C1816.47 87.2099 1822.77 80.9028 1826.92 78.6361C1825.71 80.7238 1824.07 82.5552 1822.64 84.4916C1813.63 96.6371 1805.22 109.35 1796.69 121.844C1804.95 122.968 1819.07 123.47 1827.88 124.089C1853.07 125.632 1878.24 127.366 1903.41 129.293L1903.39 129.474C1902.31 130.559 1805.54 142.847 1797.37 143.912C1804.73 153.667 1812.62 163.4 1820.15 173.059C1823.27 177.075 1827.18 180.943 1830.45 185.079C1826.6 183.057 1820.06 177.788 1816.18 175.087L1786.83 155.037C1786.01 174.173 1784.03 194.651 1782.81 213.913L1780.83 245.59C1780.45 252.793 1780.4 259.584 1779.8 266.819C1774.58 229.825 1769.62 192.795 1764.93 155.73C1754.87 163.572 1744.8 171.415 1734.74 179.255C1731.13 182.063 1727.07 186.44 1723.47 188.754C1725.55 184.571 1731.46 177.751 1734.39 173.523C1740.95 164.058 1747.45 154.597 1753.86 145.023C1739.22 145.031 1722.8 142.432 1707.98 142.385C1692.87 142.336 1677.71 142.291 1662.6 142.351L1620.42 142.133L1395.56 142.047C1094.39 142.047 53.5628 142.084 53.5628 142.084L663.813 138.967Z" fill="#8FA0D8"/>
</svg>
