<svg width="88" height="88" viewBox="0 0 88 88" fill="none" xmlns="http://www.w3.org/2000/svg">
<rect width="88" height="88" rx="11" fill="#171143"/>
<path d="M31.7185 27.0088L38.5209 27.0126C39.5806 27.0122 41.123 26.9677 42.1534 27.0486C42.4013 28.1764 42.9728 29.7801 43.3315 30.9222L45.4456 37.7252L53 61.9809C50.187 62.0261 47.3054 61.9739 44.4783 61.9959L41.8939 53.535C41.8555 53.3417 41.8504 53.2059 41.7223 53.06C41.2246 52.9909 39.2125 53.0335 38.6327 53.0337L31.7095 53.0351C30.8524 55.9722 30.1046 59.0894 29.2025 61.9901L21 61.985C21.8705 59.3288 22.6532 56.5236 23.486 53.8427L31.7185 27.0088Z" fill="#FF8500"/>
<path d="M36.3203 33C36.4936 33.1784 37.1527 36.2259 37.2707 36.7108C38.1273 40.1566 39.0372 43.5865 40 46.9989L36.6927 46.9984L33 47C33.1343 46.317 33.4017 45.3787 33.5793 44.6868L34.7178 40.2441C35.3388 37.7814 35.7955 35.4661 36.3203 33Z" fill="#171143"/>
<path d="M56 37.0182C58.9561 36.9815 62.0403 37.0098 65 37.0212L64.9934 61.9983L56 62V37.0182Z" fill="#FF8500"/>
<path d="M59.9724 26.028C62.4369 25.7693 64.6714 27.333 64.9674 29.523C65.2635 31.7129 63.5089 33.7026 61.0458 33.9701C58.5757 34.2383 56.3293 32.6733 56.0326 30.4771C55.7358 28.2807 57.5009 26.2874 59.9724 26.028Z" fill="#FF8500"/>
</svg>
