<svg width="95" height="44" viewBox="0 0 95 44" fill="none" xmlns="http://www.w3.org/2000/svg">
<path d="M2.43352e-06 37.6124C5.04961 36.7598 24.5216 33.3083 26.8711 30.6403C27.5242 29.8988 27.0453 28.7433 26.7067 27.9834C25.5093 25.2963 22.8703 22.2345 20.7169 19.8097C18.5425 17.3709 16.2552 14.9761 13.8583 12.6283L13.9359 12.5368C17.3458 15.402 28.826 24.3486 34.1554 24.7906C34.975 24.8586 35.6378 24.6457 36.2661 24.3245C41.2743 21.7636 51.0972 8.82422 54.1928 4.70821C55.3681 3.1455 56.4521 1.54111 57.6865 1.31901e-07L57.7368 0.162327C55.1547 4.26793 42.934 23.9987 44.8467 27.2091C45.0082 27.48 45.3248 27.6197 45.7251 27.7259C51.5438 29.2699 86.0011 24.767 94.3728 23.6359L94.4412 23.7094C91.9952 24.0521 89.0559 24.5801 86.6058 24.9911C81.8274 25.7875 77.0607 26.6142 72.3069 27.4708C66.9641 28.4228 61.6562 29.4552 56.3862 30.567C53.0365 31.2851 49.4893 32.0727 46.3273 33.0955C45.2078 33.4916 44.0173 33.8724 43.6704 34.7411C42.6703 37.2451 45.1026 39.877 46.7576 41.9905C44.8038 40.4575 39.5405 36.9763 36.1694 37.7034C32.9875 38.3898 29.882 41.7688 28.3573 43.6474C28.5056 43.1651 28.8221 42.6755 29.036 42.2007C29.7043 40.7169 30.3803 38.8634 29.9131 37.3274C29.7767 36.8785 29.4772 36.3125 28.8636 36.057C25.2845 34.5668 5.04124 37.0172 0.0835037 37.6775L2.43352e-06 37.6124Z" fill="#171143"/>
</svg>
