<svg width="88" height="88" viewBox="0 0 88 88" fill="none" xmlns="http://www.w3.org/2000/svg">
<g clip-path="url(#clip0_96_143)">
<path d="M6.85347 0H81.1473C81.6363 0.115828 82.277 0.246191 82.7329 0.398346C84.4611 0.979245 85.9272 2.15464 86.8699 3.71524C87.2227 4.29147 87.4406 4.74873 87.6373 5.38901C87.7052 5.60996 87.9437 6.84402 88 6.92944V81.1014C87.8187 81.6166 87.7761 82.2589 87.5823 82.7943C86.524 85.7209 84.1693 87.4831 81.1456 88H6.77209C6.73591 87.954 5.67501 87.7271 5.50915 87.6786C2.98665 86.9404 0.947341 84.8659 0.276782 82.323C0.180023 81.956 0.0934596 81.5689 0 81.1946V6.72104C0.156449 6.30863 0.206735 5.87843 0.334864 5.46399C1.06688 3.09631 2.8505 1.20118 5.2094 0.408746C5.73633 0.23174 6.31954 0.127136 6.85347 0Z" fill="#171143"/>
<path d="M25.3167 20.0461C32.2124 19.868 40.4443 20.0834 44.9942 26.167C47.4378 29.4341 48.0793 33.5582 47.4791 37.5137C46.9037 41.3025 45.0982 44.684 41.9418 46.9317C38.1307 49.6997 33.3363 50.6115 28.7144 50.6803C27.5039 50.6988 25.6759 50.6983 24.5097 50.5213C24.4732 52.06 24.4995 53.6907 24.4992 55.2363L24.5052 67.2955C21.8823 67.3535 19.2357 67.2757 16.6108 67.3062C15.7452 67.3165 14.8577 67.3122 13.9929 67.2886C14.0304 65.7989 13.9988 64.1733 13.9988 62.6724V53.8269L14.0018 20.9508C15.0131 20.857 16.0515 20.6646 17.0791 20.5568C19.8163 20.2672 22.5648 20.0969 25.3167 20.0461Z" fill="#FF8500"/>
<path d="M28.5935 28.036C30.3136 28.0532 31.6869 28.1363 33.3248 28.834C34.8739 29.494 36.0402 30.5825 36.6763 32.1591C37.3799 33.903 37.333 36.3198 36.587 38.0491C35.7664 39.9513 34.3112 41.0677 32.4248 41.8105C30.5718 42.5603 28.1154 42.6164 26.1328 42.4904C25.6172 42.4577 25.0224 42.3621 24.4917 42.3126C24.5568 41.6099 24.5258 40.5997 24.5256 39.8706L24.5238 35.6863L24.5243 31.0412C24.5245 30.2724 24.5564 29.1922 24.5035 28.4418C26.1069 28.1156 26.9616 28.0874 28.5935 28.036Z" fill="#171143"/>
<path d="M61.667 32.5088C62.3369 32.4391 63.1915 32.492 63.8636 32.5095C66.11 32.568 68.334 32.9353 70.4795 33.6056C71.1627 33.819 71.8545 34.1447 72.5471 34.3901C71.9408 36.8323 71.2568 39.2911 70.6767 41.7353C68.5429 40.6129 66.0344 39.8974 63.6212 39.7836C61.7345 39.6947 59.299 40.2552 59.2582 42.5818C59.2517 44.354 61.5837 45.2924 62.9943 45.7969C68.6688 47.8263 74.0532 50.1234 73.9917 57.2395C73.9827 59.8266 72.945 62.3042 71.1072 64.1252C67.8167 67.3354 62.978 68.0203 58.5879 67.9808C55.1684 67.9787 51.2746 67.1197 48.2036 65.6192C48.3725 65.2205 48.669 63.8459 48.7914 63.3788C49.2516 61.6188 49.634 59.7905 50.1316 58.0421C53.353 59.7308 56.3372 60.6331 60.1339 60.5743C62.8641 60.5317 65.0435 58.2759 62.9728 55.8632C62.0267 54.7606 58.0422 53.6885 56.4884 52.9563C52.7708 51.2054 49.4609 48.8107 49.1064 44.3265C48.8971 41.6789 49.7432 39.0559 51.4606 37.0297C54.123 33.9186 57.7543 32.8263 61.667 32.5088Z" fill="#FF8500"/>
</g>
<defs>
<clipPath id="clip0_96_143">
<rect width="88" height="88" fill="white"/>
</clipPath>
</defs>
</svg>
