<svg width="1897" height="267" viewBox="0 0 1897 267" fill="none" xmlns="http://www.w3.org/2000/svg">
<path d="M1232.8 138.967C1232.8 138.967 1904.08 142.488 1896.55 142.047L569.049 135.887L221.283 131.268C210.47 130.548 199.047 130.014 188.297 129.056C173.588 127.745 158.364 124.801 143.603 123.452C150.769 113.313 159.228 103.537 166.76 93.6274C169.843 89.5716 173.573 85.9858 176.561 81.7652C172.804 83.6856 167.703 88.4472 163.911 91.0387C153.636 98.0716 143.373 105.195 133.006 112.088C132.966 107.984 132.432 102.581 132.133 98.3542L130.36 73.162L125.106 2.06707e-05C124.761 2.04581 124.561 4.16804 124.367 6.23655C122.977 21.0243 121.024 35.7728 119.164 50.5171L114.002 89.4271C113.045 96.5161 111.827 104.348 111.213 111.419C102.472 105.362 92.7905 96.8813 84.2168 90.3262C80.1405 87.2099 73.8456 80.9028 69.6887 78.6361C70.903 80.7238 72.5388 82.5552 73.9735 84.4916C82.9824 96.6371 91.3946 109.35 99.9179 121.844C91.6596 122.968 77.5457 123.47 68.7316 124.089C43.5431 125.632 18.3664 127.366 -6.79478 129.293L-6.77887 129.474C-5.69848 130.559 91.073 142.847 99.2444 143.912C91.8791 153.667 83.9895 163.4 76.4655 173.059C73.3403 177.075 69.4289 180.943 66.1633 185.079C70.013 183.057 76.5503 177.788 80.4358 175.087L109.778 155.037C110.606 174.173 112.582 194.651 113.802 213.913L115.785 245.59C116.162 252.793 116.207 259.584 116.813 266.819C122.03 229.825 126.987 192.795 131.681 155.73C141.739 163.572 151.815 171.415 161.873 179.255C165.477 182.063 169.546 186.44 173.137 188.754C171.057 184.571 165.149 177.751 162.219 173.523C155.657 164.058 149.159 154.597 142.755 145.023C157.396 145.031 173.816 142.432 188.63 142.385C203.741 142.336 218.9 142.291 234.009 142.351L276.187 142.133L501.049 142.047C802.218 142.047 1843.05 142.084 1843.05 142.084L1232.8 138.967Z" fill="#FF8500"/>
</svg>
